<svg width="54" height="54" viewBox="0 0 54 54" fill="none" xmlns="http://www.w3.org/2000/svg">
<path d="M14.3086 52.1499C13.9186 51.9099 13.7586 51.5599 13.7686 51.0999C13.7886 50.0999 13.7886 49.0999 13.7686 48.1099C13.7586 47.5799 13.9786 47.2399 14.4286 46.9799C16.8886 45.5199 19.3286 44.0299 21.7986 42.5799C22.1786 42.3599 22.2886 42.1399 22.1886 41.6999C21.9386 40.5799 21.7586 39.4499 21.5286 38.3199C21.4386 37.8599 21.3886 37.3999 21.3886 36.9299C21.3886 34.9999 21.3886 33.0699 21.3886 31.1399C21.3886 30.4999 21.3686 30.4899 20.7886 30.7099C14.7186 32.9999 8.62861 35.2799 2.53861 37.5599C1.51861 37.9399 1.00861 37.5899 0.998607 36.4999C0.998607 34.9899 1.00861 33.4699 0.988607 31.9599C0.978607 31.4099 1.19861 31.0499 1.67861 30.7999C2.44861 30.4099 3.18861 29.9599 3.96861 29.5799C4.29861 29.4099 4.41861 29.1899 4.39861 28.8299C4.37861 28.3699 4.38861 27.8999 4.39861 27.4299C4.42861 26.2399 5.19861 25.2699 6.35861 24.9599C7.44861 24.6599 8.65861 25.1299 9.22861 26.1499C9.45861 26.5699 9.64861 26.5399 9.98861 26.3299C10.5486 25.9999 11.1186 25.6999 11.6986 25.3999C11.9686 25.2599 12.0886 25.0799 12.0786 24.7699C12.0586 24.2399 12.0686 23.7099 12.0786 23.1699C12.0986 22.0099 12.8786 20.9999 13.9686 20.6999C15.0886 20.3899 16.3286 20.8599 16.8786 21.8899C17.1286 22.3599 17.3286 22.3599 17.7486 22.1199C18.7286 21.5499 19.7086 20.9899 20.7286 20.4999C21.2686 20.2399 21.4086 19.8999 21.3986 19.3399C21.3686 16.6099 21.3786 13.8799 21.3886 11.1599C21.4086 8.49994 21.9386 5.94994 23.0286 3.50994C23.5486 2.34994 24.3186 1.48994 25.5586 1.12994C27.2386 0.639942 29.0586 1.47994 29.8586 3.10994C30.9886 5.42994 31.6286 7.85994 31.7086 10.4499C31.8086 13.4799 31.7386 16.4999 31.7486 19.5299C31.7486 19.9699 31.8886 20.2199 32.2886 20.4199C33.3986 20.9899 34.4886 21.5899 35.5786 22.1999C35.8886 22.3699 36.0186 22.3199 36.1886 22.0099C36.7986 20.8999 37.9586 20.3899 39.1286 20.6799C40.2886 20.9699 41.0686 21.9999 41.0786 23.2599C41.0786 23.7599 41.0986 24.2599 41.0786 24.7599C41.0686 25.0699 41.1886 25.2499 41.4586 25.3899C42.0986 25.7199 42.7186 26.0599 43.3486 26.4099C43.5886 26.5499 43.7086 26.5199 43.8586 26.2699C44.5486 25.1099 45.6886 24.6299 46.8586 24.9699C48.0586 25.3099 48.7686 26.2999 48.7686 27.6299C48.7686 27.9099 48.8086 28.1999 48.7586 28.4799C48.6486 29.1499 48.9386 29.5199 49.5286 29.7799C50.1786 30.0699 50.7886 30.4499 51.4286 30.7799C51.7186 30.9299 51.9586 31.1199 52.1286 31.3999C52.1286 33.3299 52.1286 35.2599 52.1286 37.1899C51.6486 37.7699 51.3786 37.8499 50.6586 37.5799C44.5586 35.2899 38.4586 32.9999 32.3586 30.7199C31.7886 30.5099 31.7686 30.5199 31.7686 31.1199C31.7686 33.0799 31.7686 35.0399 31.7686 37.0099C31.7686 37.4399 31.7286 37.8699 31.6386 38.2999C31.4186 39.4399 31.2286 40.5899 30.9686 41.7199C30.8686 42.1599 30.9986 42.3699 31.3686 42.5899C33.8186 44.0399 36.2486 45.5099 38.6886 46.9699C39.1686 47.2499 39.4086 47.6099 39.3886 48.1799C39.3586 49.1399 39.3686 50.1099 39.3886 51.0699C39.3986 51.5399 39.2686 51.9199 38.8486 52.1699C38.5186 52.1699 38.1786 52.1699 37.8486 52.1699C35.0386 51.6899 32.2386 51.2099 29.4286 50.7199C29.2486 50.6899 29.1086 50.7399 28.9986 50.8999C28.5886 51.5499 27.9586 51.9099 27.2686 52.1699C26.7986 52.1699 26.3386 52.1699 25.8686 52.1699C25.1786 51.8999 24.5486 51.5499 24.1386 50.8899C24.0086 50.6799 23.8186 50.6999 23.6086 50.7399C22.4986 50.9299 21.3886 51.1099 20.2786 51.2999C18.6186 51.5899 16.9486 51.8799 15.2886 52.1699C14.9786 52.1499 14.6386 52.1499 14.3086 52.1499ZM29.9486 24.0199C29.9486 19.7799 29.9586 15.5399 29.9486 11.2899C29.9386 8.78994 29.4386 6.40994 28.3686 4.13994C27.9986 3.35994 27.4486 2.79994 26.5486 2.79994C25.6786 2.79994 25.1386 3.33994 24.7786 4.10994C23.7686 6.29994 23.2486 8.60994 23.2386 11.0199C23.2286 19.6999 23.2286 28.3899 23.2386 37.0699C23.2386 37.2899 23.2386 37.4999 23.2786 37.7099C24.0186 41.5799 24.7686 45.4399 25.5186 49.3099C25.6586 50.0199 25.9986 50.3399 26.5886 50.3399C27.1886 50.3399 27.5286 50.0299 27.6686 49.3199C28.2386 46.3999 28.7486 43.4699 29.3786 40.5599C29.8486 38.4099 29.9986 36.2599 29.9686 34.0799C29.9186 30.7399 29.9486 27.3799 29.9486 24.0199ZM21.3886 25.4499C21.3886 24.6399 21.3886 23.8199 21.3886 23.0099C21.3886 22.2199 21.3886 22.2099 20.7086 22.5799C17.0286 24.5699 13.3386 26.5699 9.65861 28.5599C7.53861 29.6999 5.41861 30.8599 3.29861 31.9999C2.95861 32.1799 2.81861 32.3999 2.82861 32.7799C2.85861 33.4899 2.82861 34.2099 2.83861 34.9199C2.83861 35.4699 2.87861 35.4899 3.36861 35.3099C4.23861 34.9899 5.10861 34.6599 5.98861 34.3299C10.9386 32.4699 15.8886 30.6099 20.8386 28.7699C21.2686 28.6099 21.4286 28.3899 21.4086 27.9299C21.3686 27.1099 21.3886 26.2799 21.3886 25.4499ZM31.7886 25.4199C31.7886 26.2799 31.8086 27.1499 31.7786 28.0099C31.7686 28.4099 31.8986 28.6099 32.2786 28.7399C33.6586 29.2299 35.0186 29.7599 36.3886 30.2699C40.8386 31.9399 45.2886 33.6099 49.7386 35.2699C50.3186 35.4899 50.3286 35.4799 50.3386 34.8299C50.3386 34.3499 50.2786 33.8599 50.3486 33.3899C50.4786 32.5199 50.1086 32.0799 49.3386 31.6699C45.8386 29.8299 42.3686 27.9199 38.8886 26.0299C36.7086 24.8499 34.5286 23.6699 32.3486 22.4999C31.7886 22.1999 31.7786 22.1999 31.7786 22.8599C31.7886 23.7299 31.7886 24.5699 31.7886 25.4199ZM15.6086 49.1499C15.6086 49.4299 15.6186 49.6099 15.6086 49.7999C15.5986 50.0899 15.6886 50.2199 16.0186 50.1599C18.4086 49.7499 20.7986 49.3499 23.1986 48.9599C23.5086 48.9099 23.5686 48.7999 23.5086 48.4899C23.2486 47.2199 22.9986 45.9499 22.7786 44.6699C22.6986 44.2399 22.5586 44.2099 22.1986 44.4299C20.2486 45.6199 18.3086 46.7999 16.3386 47.9399C15.7886 48.2599 15.4386 48.5899 15.6086 49.1499ZM37.5686 49.2999C37.5386 48.8699 37.6786 48.4299 37.1586 48.1299C35.0786 46.9199 33.0086 45.6699 30.9586 44.4099C30.5886 44.1799 30.4886 44.2899 30.4186 44.6599C30.1986 45.8399 29.9686 47.0099 29.7386 48.1799C29.5986 48.8999 29.5986 48.8899 30.3186 49.0099C32.4286 49.3599 34.5486 49.6999 36.6586 50.0599C37.7586 50.2499 37.5486 50.2399 37.5686 49.2999ZM13.8586 23.4299C13.8486 24.2199 13.8686 24.2299 14.4386 23.9199C14.6986 23.7799 14.9586 23.6299 15.2286 23.4899C15.4086 23.3899 15.5286 23.2699 15.4486 23.0499C15.3286 22.7199 15.1186 22.4699 14.7386 22.4399C14.3686 22.4199 14.0886 22.5899 13.9586 22.9399C13.8786 23.1399 13.8686 23.3599 13.8586 23.4299ZM39.3186 23.4699C39.3086 23.4299 39.2986 23.2499 39.2586 23.0699C39.1586 22.6399 38.8686 22.4199 38.4286 22.4399C38.0486 22.4599 37.8286 22.7199 37.7286 23.0499C37.6186 23.3999 37.9386 23.4499 38.1386 23.5699C38.3486 23.6999 38.5686 23.8199 38.7886 23.9299C39.3086 24.2199 39.3286 24.2099 39.3186 23.4699ZM6.23861 27.6199C6.22861 28.2999 6.26861 28.3299 6.81861 28.0399C7.06861 27.9099 7.30861 27.7699 7.55861 27.6299C7.82861 27.4799 7.81861 27.2799 7.66861 27.0499C7.43861 26.6999 7.10861 26.6399 6.74861 26.7499C6.31861 26.8899 6.20861 27.2499 6.23861 27.6199ZM46.9386 27.6399C46.9686 27.2799 46.8886 26.9099 46.4586 26.7599C46.1486 26.6499 45.8286 26.6699 45.5886 26.9499C45.3586 27.2199 45.2886 27.4699 45.6786 27.6699C45.9186 27.7899 46.1386 27.9199 46.3786 28.0499C46.9086 28.3199 46.9386 28.2999 46.9386 27.6399Z" fill="#4D4D4D"/>
<path d="M26.5503 6.11987C27.3903 6.19987 28.1003 6.51987 28.4603 7.33987C28.7003 7.88987 28.8603 8.46987 29.0503 9.02987C29.1203 9.23987 29.0803 9.38987 28.8603 9.45987C28.8303 9.46987 28.8003 9.47987 28.7703 9.48987C27.4803 10.0099 27.4903 10.0099 27.0303 8.67987C26.9403 8.41987 26.9703 7.97987 26.5903 7.99987C26.2303 8.00987 26.2403 8.43987 26.1503 8.69987C25.7003 9.97987 25.7103 9.97987 24.4503 9.50987C24.1303 9.38987 24.0403 9.23987 24.1603 8.91987C24.3503 8.41987 24.4903 7.90987 24.6903 7.41987C25.0203 6.58987 25.6903 6.21987 26.5503 6.11987Z" fill="#4D4D4D"/>
</svg>
