<svg width="257" height="256" viewBox="0 0 257 256" fill="none" xmlns="http://www.w3.org/2000/svg">
<g clip-path="url(#clip0_0_89)">
<path d="M165.289 175.753C167.675 173.185 168.925 170.414 169.569 167.373C170.589 162.557 170.288 157.915 167.524 153.64C167.357 153.379 167.528 152.899 167.541 152.523C167.943 152.677 168.516 152.713 168.722 153.006C170.306 155.265 171.061 157.831 171.335 160.557C171.867 165.867 170.726 170.791 167.663 175.161C164.305 179.952 159.115 181.661 153.139 180.1C148.005 178.758 144.333 175.458 141.47 171.149C138.212 166.248 136.17 160.81 135.006 155.098C133.67 148.537 132.716 141.9 131.521 135.309C130.81 131.397 129.958 127.515 127.555 124.193C126.053 122.117 123.976 121.095 121.48 120.767C120.764 120.674 120.591 121.123 120.351 121.599C118.495 125.274 116.704 128.986 114.754 132.612C111.2 139.218 107.261 145.581 102.323 151.272C101.965 151.683 101.58 152.073 101.194 152.488C99.8157 150.623 99.7871 149.972 100.907 148.347C104.636 142.93 107.528 137.052 110.368 131.146C114.197 123.184 117.951 115.185 121.893 107.28C124.503 102.046 127.717 97.1562 131.277 92.5101C131.582 92.1123 132.223 91.8706 132.749 91.7697C133.4 91.646 134.093 91.7431 134.766 91.7526C134.831 91.7526 134.896 91.8135 134.846 91.7888C130.386 100.896 125.927 110.002 121.467 119.106C121.555 119.241 121.64 119.374 121.728 119.509C123.66 119.216 125.63 119.071 127.519 118.599C131.749 117.543 135.037 114.952 137.803 111.702C141.648 107.181 144.017 101.983 144.268 95.999C144.437 91.9429 143.223 88.3285 139.979 85.4259C138.593 86.6459 137.856 89.2078 135.145 87.7118C136.204 86.5831 137.281 85.4335 138.593 84.0345C136.651 83.022 134.913 81.9256 133.036 81.1719C127.27 78.8536 121.212 78.2959 115.053 78.5072C110.452 78.6652 105.953 79.3923 101.666 81.1091C93.2382 84.4837 87.131 90.1329 84.7266 99.1281C83.2569 104.631 83.8033 109.933 87.3614 114.616C90.4207 118.645 94.6946 120.078 99.5929 120.092C107.994 120.116 113.557 114.549 115.331 107.004C115.948 104.379 116.055 101.747 115.346 99.1033C115.257 98.7721 115.541 98.3401 115.651 97.9556C115.984 98.224 116.517 98.4333 116.618 98.7721C117.599 102.078 117.317 105.384 116.321 108.622C114.45 114.703 110.787 119.199 104.427 120.813C98.6753 122.273 93.1583 121.603 88.3856 117.739C85.1778 115.141 83.552 111.601 82.9219 107.592C81.2885 97.1886 87.5594 86.5203 97.6892 81.366C104.567 77.8658 111.903 76.8494 119.5 77.1444C124.359 77.3329 129.137 78.0181 133.643 79.929C135.391 80.6694 137.045 81.6515 138.675 82.6356C139.328 83.0296 139.724 83.0886 140.31 82.569C143.118 80.0775 146.052 77.7516 149.534 76.2422C155.205 73.785 161.03 72.8429 167.027 74.8547C170.915 76.1585 173.774 78.7965 175.8 82.3463C175.893 82.5081 176.032 82.6832 176.032 82.8507C176.03 83.2161 175.95 83.5796 175.903 83.9451C175.543 83.7928 175.063 83.7357 174.844 83.4673C174.305 82.8031 173.93 82.0094 173.414 81.3242C170.372 77.2796 166.279 75.2849 161.242 75.1973C153.486 75.0622 147.07 78.1189 141.631 83.4788C141.445 83.6615 141.277 83.8632 141.11 84.065C141.066 84.1183 141.062 84.2039 141.039 84.2801C142.185 85.6524 143.39 86.9809 144.47 88.4046C150.488 96.3435 149.387 106.859 141.932 113.519C138.151 116.896 133.662 118.698 128.794 119.749C127.888 119.945 126.993 120.196 126.004 120.446C126.122 120.674 126.152 120.834 126.247 120.904C130.013 123.628 132.143 127.501 133.855 131.677C136.552 138.263 138.02 145.18 139.431 152.119C140.563 157.688 141.418 163.336 143.467 168.678C144.773 172.085 146.503 175.306 149.766 177.186C154.107 179.689 158.645 180.273 163.189 177.546C164.372 176.836 164.467 176.21 163.631 175.087C162.691 173.825 161.301 173.338 159.867 173.45C157.114 173.663 154.379 174.105 151.641 174.478C151.051 174.558 150.474 174.74 149.894 174.891C149.075 175.104 148.407 174.986 148.005 173.998C148.831 173.678 149.692 173.427 150.474 173.025C152.835 171.817 155.171 170.557 157.509 169.304C158.103 168.987 158.407 168.545 158.401 167.784C158.356 161.149 158.401 154.514 158.323 147.88C158.304 146.247 158.064 144.586 157.691 142.994C157.036 140.202 155.213 138.763 152.384 138.44C151.784 138.371 151.209 138.067 150.625 137.871C150.986 136.843 151.847 137.385 152.443 137.382C158.74 137.336 165.04 137.353 171.337 137.355C171.674 137.355 172.025 137.311 172.344 137.385C172.55 137.433 172.716 137.657 172.9 137.802C172.712 137.983 172.548 138.276 172.333 138.322C171.64 138.465 170.907 138.44 170.226 138.615C167.507 139.315 165.99 141.2 165.639 144.452C165.411 146.571 165.259 148.708 165.245 150.84C165.198 158.674 165.223 166.508 165.224 174.343C165.224 174.704 165.261 175.064 165.297 175.762L165.289 175.753Z" fill="#C19A74"/>
<path d="M143.744 176.258C141.833 176.541 139.931 176.968 138.01 177.084C130.34 177.544 122.805 176.794 115.588 174.004C101.546 168.574 92.4001 158.713 88.7963 143.979C86.9287 136.343 87.0487 128.693 89.1218 121.093C89.217 120.745 89.3617 120.412 89.4093 120.278C91.4958 120.977 93.4586 121.673 95.4499 122.279C96.1447 122.49 96.1409 122.857 96.1029 123.442C95.882 126.837 95.4251 130.246 95.566 133.63C95.9429 142.671 98.0789 151.246 103.23 158.865C108.576 166.769 115.923 171.848 125.131 174.276C130.747 175.757 136.426 176.018 142.175 175.258C142.697 175.19 143.272 175.527 143.822 175.675C143.795 175.869 143.771 176.063 143.744 176.258Z" fill="#C19A74"/>
<path d="M142.525 91.6156C140.478 91.2997 138.611 90.9095 136.726 90.7382C125.046 89.6818 115.05 93.3267 106.797 101.656C102.28 106.216 99.2546 111.675 97.4155 117.796C97.1776 118.586 96.9015 118.889 96.1077 118.586C94.579 118.004 93.0407 117.45 91.5158 116.862C90.8609 116.608 90.762 116.159 91.0551 115.516C92.6733 111.955 94.6532 108.616 97.1585 105.605C104.041 97.339 112.91 92.4188 123.333 90.1634C129.218 88.89 135.144 88.8805 141.093 89.6856C142.313 89.8512 142.197 90.782 142.525 91.6137V91.6156Z" fill="#C19A74"/>
<path d="M147.439 90.6238C148.98 90.9227 150.36 91.1777 151.734 91.4575C153.674 91.8534 155.601 92.3292 157.552 92.6604C160.231 93.1172 161.906 91.9219 162.409 89.2705C162.574 88.3912 162.605 87.4871 162.757 86.6059C162.795 86.3908 163.073 86.2176 163.239 86.0234C163.402 86.2214 163.617 86.3984 163.711 86.6268C163.791 86.819 163.732 87.0703 163.732 87.2949C163.732 96.0979 163.732 104.901 163.732 113.704C163.732 114.003 163.785 114.322 163.697 114.596C163.638 114.783 163.378 115.027 163.212 115.025C163.052 115.023 162.791 114.751 162.761 114.568C162.65 113.906 162.656 113.224 162.551 112.56C161.689 107.113 158.917 102.697 154.963 99.0119C153.278 97.4416 151.298 96.1873 149.482 94.7522C149.126 94.4705 148.823 94.0575 148.635 93.6425C148.218 92.7327 147.891 91.7811 147.438 90.6238H147.439Z" fill="#C19A74"/>
<path d="M93.0568 157.399C93.3804 157.902 93.6583 158.338 94.0296 158.914C93.5327 159.272 93.0815 159.641 92.5884 159.942C87.8976 162.812 82.8565 164.544 77.3033 164.552C67.7332 164.563 60.3905 158.762 58.3154 149.401C56.6553 141.914 57.9023 134.943 62.6293 128.782C65.7704 124.69 69.9967 122.261 75.0378 121.277C78.2247 120.655 81.4363 120.526 84.6327 121.249C85.1715 121.371 85.7236 121.567 86.1785 121.868C86.3918 122.008 86.4812 122.494 86.4336 122.793C86.4127 122.922 85.8587 123.107 85.615 123.034C78.891 121.072 72.6753 122.229 67.103 126.34C62.8215 129.5 60.4266 133.958 59.4462 139.15C58.3458 144.978 59.1454 150.524 62.4503 155.519C66.2901 161.32 71.9195 163.458 78.7025 163.117C83.993 162.852 88.602 160.964 92.6379 157.584C92.7198 157.515 92.8359 157.492 93.0549 157.397L93.0568 157.399Z" fill="#C19A74"/>
<path d="M181.514 75.0453C181.297 74.8284 181.244 74.4819 181.412 74.2079C181.541 73.9852 194.311 52.0415 181.836 39.5708C181.735 39.468 181.632 39.3671 181.528 39.2681C176.269 34.2452 169.665 33.7047 163.284 33.1831C157.303 32.694 151.65 32.2315 147.346 28.2649C142.164 23.4913 141.804 16.8391 144.125 12.7336C146.52 8.48914 151.23 6.91507 156.728 8.51388C160.362 9.57595 161.721 13.5749 161.78 16.6811C161.832 19.4258 160.939 21.5118 159.503 21.9915C159.143 22.1095 158.751 21.9134 158.631 21.5575C158.509 21.194 158.706 20.8057 159.067 20.6858C159.747 20.4593 160.446 18.988 160.408 16.7116C160.354 14.0717 159.258 10.6913 156.339 9.84242C151.502 8.43394 147.384 9.76819 145.322 13.415C143.268 17.0504 143.62 22.9736 148.277 27.2599C152.235 30.901 157.655 31.3445 163.394 31.8146C170.018 32.3571 176.865 32.9186 182.476 38.2765C188.193 43.7372 190.028 51.8397 187.751 61.6781C186.055 69.027 182.731 74.678 182.59 74.914C182.398 75.2414 181.973 75.3461 181.648 75.1538C181.596 75.1234 181.552 75.091 181.51 75.0491L181.514 75.0453Z" fill="#C19A74"/>
<path d="M150.312 8.86008C150.312 8.86008 155.34 2.98064 150.312 0C150.312 0 149.419 6.17065 146.664 8.59361C143.91 11.0128 142.891 14.2504 143.009 17.2082C143.009 17.2082 143.866 11.0699 150.314 8.86008H150.312Z" fill="#C19A74"/>
<path d="M158.259 9.17578C158.259 9.17578 162.272 11.8157 162.274 17.2079C162.274 22.5982 156.881 23.5137 155.851 22.5982C154.815 21.6808 154.703 20.533 157.111 19.6175C159.52 18.6982 161.189 11.7681 154.703 9.17769H158.259V9.17578Z" fill="#C19A74"/>
<path d="M180.516 36.476C180.516 36.476 175.583 34.0702 174.207 31.8908C172.832 29.7115 171.142 24.2508 175.241 24.2032C176.505 24.1861 178.085 26.6147 177.188 29.1348C177.188 29.1348 181.778 23.5142 176.63 20.762C170.552 17.511 163.078 25.6935 170.881 32.6902L180.516 36.4741V36.476Z" fill="#C19A74"/>
<path d="M188.026 54.0302C188.026 54.0302 187.974 47.6007 182.351 43.8149C176.733 40.0311 173.749 41.0646 172.143 38.082C172.143 38.082 171.315 43.3581 174.024 46.5671C176.731 49.7819 181.446 48.461 184.304 54.8277C187.163 61.2001 185.337 64.6813 185.566 66.6969C185.566 66.6969 188.332 58.2327 188.027 54.0302H188.026Z" fill="#C19A74"/>
<path d="M143.002 18.1217C143.002 18.1217 143.002 12.9617 137.836 11.4695C132.623 9.96967 129.916 15.3695 129.914 18.9268C129.914 18.9268 134.276 13.31 137.834 17.2062C140.817 20.4818 142.808 26.4507 147.775 28.2513C147.775 28.2513 142.867 21.2318 143.002 18.1217Z" fill="#C19A74"/>
<path d="M181.443 75.0794C181.405 75.0375 181.37 74.9937 181.34 74.9442C181.144 74.6168 181.252 74.1924 181.58 74.0002C181.818 73.8593 187.468 70.5399 194.818 68.8402C204.659 66.5657 212.754 68.3948 218.227 74.1163C223.588 79.7254 224.147 86.5737 224.69 93.1935C225.16 98.9321 225.606 104.355 229.251 108.31C233.529 112.958 239.461 113.316 243.095 111.26C246.745 109.201 248.079 105.086 246.669 100.251C245.82 97.3276 242.437 96.2389 239.798 96.1856C237.521 96.1418 236.046 96.8403 235.825 97.5236C235.701 97.8833 235.313 98.0794 234.953 97.9576C234.593 97.8358 234.395 97.4456 234.517 97.0858C234.997 95.6526 237.08 94.758 239.829 94.8094C242.932 94.8703 246.931 96.2274 247.994 99.8666C249.597 105.358 248.02 110.067 243.775 112.465C239.665 114.783 233.009 114.422 228.241 109.244C224.275 104.939 223.812 99.2861 223.321 93.3077C222.796 86.9239 222.259 80.325 217.235 75.0698C217.134 74.9633 217.033 74.8605 216.928 74.7596C204.446 62.2775 182.509 75.0546 182.284 75.1859C182.01 75.3477 181.665 75.2963 181.447 75.0813L181.443 75.0794Z" fill="#C19A74"/>
<path d="M247.645 106.275C247.645 106.275 253.524 101.246 256.507 106.273C256.507 106.273 250.337 107.17 247.915 109.92C245.494 112.676 242.251 113.694 239.297 113.578C239.297 113.578 245.433 112.72 247.645 106.275Z" fill="#C19A74"/>
<path d="M247.33 98.3345C247.33 98.3345 244.688 94.3242 239.296 94.3223C233.905 94.3223 232.987 99.7144 233.905 100.744C234.824 101.78 235.974 101.894 236.888 99.4841C237.806 97.0764 244.735 95.4053 247.33 101.896V98.3364V98.3345Z" fill="#C19A74"/>
<path d="M220.023 76.0806C220.023 76.0806 222.432 81.0159 224.613 82.3921C226.795 83.7682 232.253 85.4564 232.301 81.3604C232.314 80.0947 229.891 78.5168 227.368 79.4114C227.368 79.4114 232.99 74.8206 235.743 79.9672C238.998 86.0465 230.81 93.5171 223.812 85.7172L220.025 76.0806H220.023Z" fill="#C19A74"/>
<path d="M202.468 68.574C202.468 68.574 208.897 68.6254 212.682 74.2459C216.464 79.8665 215.433 82.8472 218.42 84.4517C218.42 84.4517 213.141 85.2777 209.927 82.5712C206.715 79.8646 208.037 75.1538 201.665 72.2969C195.295 69.4362 191.811 71.2615 189.797 71.0312C189.797 71.0312 198.263 68.2713 202.468 68.574Z" fill="#C19A74"/>
<path d="M238.374 113.586C238.374 113.586 243.537 113.586 245.031 118.756C246.535 123.967 241.131 126.672 237.572 126.67C237.572 126.67 243.19 122.309 239.292 118.756C236.019 115.775 230.045 113.784 228.242 108.814C228.242 108.814 235.265 113.721 238.372 113.588L238.374 113.586Z" fill="#C19A74"/>
<path d="M211.749 64.917C211.749 64.917 215.819 60.6154 211.612 56.3367C209.183 53.8624 205.072 55.7886 202.346 59.3288C201.493 60.4441 199.487 61.6471 197.852 59.4696C197.852 59.4696 199.936 67.0545 204.187 62.8062C207.456 59.54 212.659 57.926 211.747 64.917H211.749Z" fill="#C19A74"/>
<path d="M191.455 44.6199C191.455 44.6199 195.757 40.5524 200.037 44.7569C202.512 47.1837 200.582 51.293 197.039 54.0167C195.929 54.8732 194.726 56.8812 196.902 58.5143C196.902 58.5143 189.313 56.4301 193.564 52.1819C196.833 48.9138 198.444 43.7101 191.453 44.6199H191.455Z" fill="#C19A74"/>
<path d="M208.549 47.8212C209.773 53.1335 207.595 53.4057 207.595 53.4057C204.462 54.089 198.874 59.3974 198.874 59.3974L197.923 58.4419L196.969 57.4921C196.969 57.4921 202.282 51.9039 202.966 48.7748C202.966 48.7748 203.236 46.5955 208.549 47.8193V47.8212Z" fill="#C19A74"/>
<path d="M193.164 58.3184C192.639 58.8438 193.305 60.3626 194.655 61.7159C196.004 63.0654 197.527 63.7334 198.055 63.2081C198.584 62.679 197.914 61.1582 196.562 59.8068C195.212 58.4574 193.693 57.7912 193.164 58.3203V58.3184Z" fill="#C19A74"/>
<path d="M194.182 62.1916L195.404 63.4154L191.047 66.0059L190.706 65.6652L190.367 65.3264L192.956 60.9658L194.182 62.1916Z" fill="#C19A74"/>
<path d="M75.5642 180.974C75.3453 180.757 75.0007 180.704 74.7266 180.869C74.5038 180.999 52.5575 193.766 40.0842 181.296C39.9814 181.193 39.8805 181.09 39.7796 180.985C34.7575 175.73 34.215 169.131 33.6933 162.748C33.2041 156.767 32.7415 151.118 28.776 146.813C24.0014 141.632 17.3497 141.272 13.2395 143.592C8.99418 145.985 7.41788 150.694 9.02083 156.191C10.0831 159.824 14.0829 161.183 17.1879 161.244C19.9331 161.295 22.0196 160.401 22.4993 158.968C22.6193 158.608 22.4213 158.216 22.0634 158.098C21.7036 157.976 21.3133 158.17 21.1915 158.53C20.9649 159.213 19.4914 159.908 17.2183 159.87C14.5779 159.815 11.1968 158.722 10.3458 155.804C8.93516 150.968 10.2697 146.847 13.9211 144.79C17.5572 142.74 23.4817 143.088 27.7651 147.743C31.4069 151.702 31.8543 157.121 32.3226 162.86C32.8671 169.48 33.4268 176.328 38.7877 181.939C44.2477 187.653 52.3557 189.486 62.1923 187.213C69.5427 185.515 75.193 182.192 75.4329 182.053C75.7584 181.861 75.865 181.437 75.6708 181.109C75.6404 181.06 75.6061 181.012 75.5661 180.974H75.5642Z" fill="#C19A74"/>
<path d="M9.36382 149.78C9.36382 149.78 3.48126 154.803 0.5 149.78C0.5 149.78 6.67384 148.886 9.09349 146.13C11.5151 143.374 14.7533 142.359 17.7098 142.475C17.7098 142.475 11.5741 143.334 9.36192 149.78H9.36382Z" fill="#C19A74"/>
<path d="M9.67963 157.715C9.67963 157.715 12.3201 161.731 17.7115 161.731C23.1029 161.731 24.0205 156.339 23.1067 155.309C22.1872 154.274 21.0374 154.162 20.1217 156.569C19.2021 158.977 12.2706 160.648 9.68153 154.162V157.715H9.67963Z" fill="#C19A74"/>
<path d="M36.9841 179.969C36.9841 179.969 34.5758 175.037 32.396 173.659C30.2143 172.285 24.7544 170.593 24.7068 174.695C24.6916 175.961 27.1189 177.535 29.6394 176.64C29.6394 176.64 24.0177 181.231 21.2668 176.084C18.0133 170.001 26.1975 162.534 33.1994 170.334L36.9841 179.967V179.969Z" fill="#C19A74"/>
<path d="M54.5433 187.478C54.5433 187.478 48.1144 187.426 44.3297 181.806C40.5451 176.189 41.5788 173.204 38.5938 171.596C38.5938 171.596 43.8709 170.77 47.0806 173.479C50.2941 176.185 48.9749 180.896 55.341 183.757C61.7166 186.614 65.1985 184.788 67.2127 185.017C67.2127 185.017 58.7487 187.782 54.5433 187.478Z" fill="#C19A74"/>
<path d="M18.6287 142.467C18.6287 142.467 13.4658 142.467 11.977 137.298C10.4731 132.092 15.8759 129.382 19.4321 129.382C19.4321 129.382 13.8122 133.742 17.713 137.298C20.9855 140.282 26.9576 142.271 28.7585 147.239C28.7585 147.239 21.7394 142.332 18.6287 142.465V142.467Z" fill="#C19A74"/>
<path d="M75.5938 180.9C75.5558 180.862 75.512 180.825 75.4625 180.795C75.1312 180.599 74.7105 180.709 74.5163 181.037C74.3755 181.273 71.0553 186.922 69.3572 194.271C67.0822 204.111 68.9079 212.202 74.6325 217.672C80.2409 223.032 87.0905 223.594 93.7137 224.134C99.4515 224.602 104.875 225.048 108.831 228.695C113.482 232.971 113.84 238.9 111.786 242.534C109.726 246.181 105.606 247.519 100.769 246.106C97.8486 245.256 96.7558 241.875 96.7063 239.237C96.6626 236.963 97.3593 235.486 98.0447 235.265C98.4026 235.143 98.5987 234.753 98.4787 234.395C98.3569 234.032 97.9685 233.836 97.6068 233.955C96.1733 234.437 95.2785 236.521 95.328 239.268C95.3909 242.37 96.7463 246.369 100.386 247.431C105.88 249.034 110.59 247.456 112.985 243.211C115.306 239.104 114.944 232.45 109.764 227.682C105.46 223.715 99.8056 223.253 93.826 222.764C87.4389 222.24 80.8368 221.702 75.5843 216.679C75.4758 216.576 75.3749 216.475 75.2721 216.372C62.7874 203.89 75.5672 181.962 75.6967 181.739C75.8604 181.461 75.809 181.117 75.59 180.9H75.5938Z" fill="#C19A74"/>
<path d="M106.798 247.085C106.798 247.085 101.768 252.964 106.798 255.947C106.798 255.947 107.695 249.778 110.444 247.353C113.202 244.936 114.219 241.695 114.104 238.739C114.104 238.739 113.242 244.877 106.8 247.085H106.798Z" fill="#C19A74"/>
<path d="M98.8587 246.769C98.8587 246.769 94.8457 244.129 94.8438 238.74C94.8438 233.348 100.239 232.435 101.269 233.348C102.301 234.267 102.417 235.419 100.005 236.334C97.5966 237.252 95.927 244.182 102.417 246.769H98.8587Z" fill="#C19A74"/>
<path d="M76.6016 219.473C76.6016 219.473 81.5361 221.879 82.9125 224.058C84.2908 226.241 85.9775 231.698 81.8806 231.744C80.6127 231.761 79.0364 229.332 79.9293 226.812C79.9293 226.812 75.3394 232.434 80.489 235.187C86.5696 238.438 94.0398 230.251 86.2402 223.258L76.6016 219.475V219.473Z" fill="#C19A74"/>
<path d="M69.0857 201.916C69.0857 201.916 69.139 208.344 74.7626 212.128C80.3844 215.912 83.3656 214.88 84.9724 217.864C84.9724 217.864 85.7948 212.588 83.0896 209.375C80.3844 206.163 75.6688 207.487 72.8113 201.115C69.9538 194.748 71.7756 191.261 71.5472 189.25C71.5472 189.25 68.783 197.716 69.0857 201.916Z" fill="#C19A74"/>
<path d="M114.109 237.823C114.109 237.823 114.109 242.983 119.279 244.475C124.492 245.981 127.197 240.575 127.197 237.022C127.197 237.022 122.835 242.638 119.279 238.738C116.296 235.469 114.309 229.496 109.336 227.693C109.336 227.693 114.242 234.715 114.109 237.823Z" fill="#C19A74"/>
<path d="M65.4264 211.203C65.4264 211.203 61.1221 215.27 56.8405 211.067C54.3676 208.637 56.2961 204.527 59.8389 201.802C60.9507 200.949 62.1539 198.941 59.976 197.308C59.976 197.308 67.5643 199.394 63.3133 203.644C60.0445 206.91 58.4302 212.114 65.4245 211.203H65.4264Z" fill="#C19A74"/>
<path d="M45.127 190.907C45.127 190.907 41.0587 195.209 45.266 199.491C47.6952 201.964 51.8053 200.034 54.5277 196.492C55.3806 195.382 57.389 194.177 59.0243 196.356C59.0243 196.356 56.9397 188.768 52.6887 193.02C49.42 196.288 44.2151 197.896 45.127 190.905V190.907Z" fill="#C19A74"/>
<path d="M48.3279 208.003C53.6432 209.227 53.9173 207.051 53.9173 207.051C54.5969 203.918 59.9103 198.328 59.9103 198.328L58.9546 197.378L58.0027 196.427C58.0027 196.427 52.4153 201.739 49.2836 202.422C49.2836 202.422 47.1019 202.693 48.326 208.005L48.3279 208.003Z" fill="#C19A74"/>
<path d="M58.831 192.619C59.3545 192.093 60.8775 192.756 62.2273 194.107C63.577 195.458 64.2452 196.981 63.7179 197.506C63.1925 198.032 61.6695 197.365 60.3178 196.014C58.9681 194.663 58.3018 193.144 58.8291 192.617L58.831 192.619Z" fill="#C19A74"/>
<path d="M62.7026 193.635L63.9267 194.857L66.5177 190.5L66.1769 190.159L65.838 189.82L61.4766 192.409L62.7026 193.635Z" fill="#C19A74"/>
<path d="M75.5645 75.0262C75.3456 75.2432 75.001 75.2965 74.7269 75.1309C74.5041 75.0015 52.5559 62.2338 40.0845 74.7007C39.9798 74.8054 39.8789 74.9101 39.778 75.011C34.7578 80.2718 34.2171 86.8707 33.6917 93.2507C33.2024 99.231 32.7398 104.882 28.7743 109.187C24.0017 114.365 17.3462 114.728 13.2398 112.406C8.99255 110.012 7.41816 105.303 9.02111 99.8078C10.0834 96.1743 14.0832 94.8153 17.1882 94.7544C19.9334 94.703 22.0199 95.5957 22.4958 97.0308C22.6176 97.3905 22.4215 97.7826 22.0617 97.9025C21.7019 98.0243 21.3117 97.8283 21.1898 97.4686C20.9633 96.7852 19.4898 96.0905 17.2167 96.1286C14.5743 96.1838 11.1952 97.2763 10.3423 100.196C8.93354 105.032 10.2681 109.147 13.9175 111.209C17.5537 113.263 23.48 112.91 27.7635 108.255C31.4053 104.3 31.8508 98.877 32.321 93.1384C32.8617 86.5186 33.4233 79.6704 38.7861 74.0612C44.2441 68.3435 52.3522 66.5106 62.1907 68.787C69.5411 70.4829 75.1914 73.8081 75.4274 73.9451C75.7568 74.1411 75.8615 74.5618 75.6673 74.8892C75.6388 74.9405 75.6045 74.9824 75.5645 75.0243V75.0262Z" fill="#C19A74"/>
<path d="M9.36382 106.22C9.36382 106.22 3.48126 101.197 0.5 106.22C0.5 106.22 6.67384 107.117 9.09349 109.871C11.5151 112.627 14.7514 113.641 17.7098 113.525C17.7098 113.525 11.5703 112.667 9.36192 106.22H9.36382Z" fill="#C19A74"/>
<path d="M9.67378 98.2813C9.67378 98.2813 12.3124 94.2709 17.7057 94.269C23.0971 94.269 24.0147 99.6574 23.0971 100.691C22.1776 101.726 21.0315 101.841 20.112 99.4309C19.1925 97.0251 12.2629 95.354 9.67188 101.842V98.2832L9.67378 98.2813Z" fill="#C19A74"/>
<path d="M36.9865 76.0312C36.9865 76.0312 34.5782 80.9628 32.3984 82.3389C30.2168 83.7151 24.7549 85.4052 24.7092 81.3073C24.694 80.0416 27.1213 78.4637 29.6418 79.3583C29.6418 79.3583 24.0201 74.7693 21.2654 79.9141C18.0157 85.9934 26.198 93.464 33.2018 85.6641L36.9865 76.0312Z" fill="#C19A74"/>
<path d="M54.5395 68.5224C54.5395 68.5224 48.1144 68.5738 44.3278 74.1944C40.5432 79.813 41.5769 82.7956 38.5938 84.4001C38.5938 84.4001 43.8709 85.2281 47.0806 82.5234C50.2941 79.8149 48.971 75.1023 55.341 72.2453C61.7166 69.3884 65.1985 71.2137 67.2127 70.9815C67.2127 70.9815 58.7468 68.216 54.5414 68.5205L54.5395 68.5224Z" fill="#C19A74"/>
<path d="M18.6296 113.533C18.6296 113.533 13.4647 113.533 11.976 118.702C10.4758 123.91 15.8748 126.618 19.4348 126.618C19.4348 126.618 13.815 122.258 17.7139 118.702C20.9902 115.718 26.9603 113.729 28.7613 108.761C28.7613 108.761 21.7422 113.668 18.6315 113.535L18.6296 113.533Z" fill="#C19A74"/>
<path d="M75.5919 75.1001C75.5539 75.1382 75.5101 75.1744 75.4606 75.2029C75.1312 75.4008 74.7105 75.2905 74.5163 74.9631C74.3755 74.7271 71.0553 69.0779 69.3572 61.7291C67.0822 51.8926 68.9079 43.7996 74.6325 38.3275C80.2409 32.9677 87.0905 32.4062 93.7137 31.8637C99.4515 31.3955 104.875 30.9463 108.831 27.3033C113.482 23.0265 113.84 17.0976 111.786 13.4641C109.726 9.81727 105.608 8.47922 100.771 9.8915C97.8505 10.7423 96.7577 14.1226 96.7063 16.7588C96.6645 19.0352 97.3593 20.5103 98.0409 20.733C98.4026 20.8567 98.5968 21.245 98.4768 21.6047C98.3569 21.9644 97.9666 22.1605 97.6049 22.0425C96.1714 21.5609 95.2785 19.4768 95.328 16.7302C95.389 13.6278 96.7463 9.62884 100.386 8.56677C105.88 6.96416 110.59 8.54203 112.985 12.7865C115.304 16.8939 114.944 23.5518 109.764 28.3159C105.46 32.2825 99.8056 32.745 93.826 33.2341C87.4389 33.7595 80.8368 34.2962 75.5843 39.3191C75.4777 39.42 75.373 39.5228 75.2721 39.6237C62.7874 52.1039 75.5672 74.0381 75.6966 74.2607C75.8585 74.5367 75.809 74.8793 75.59 75.0982L75.5919 75.1001Z" fill="#C19A74"/>
<path d="M106.798 8.91525C106.798 8.91525 101.768 3.03582 106.798 0.0551758C106.798 0.0551758 107.695 6.22392 110.444 8.64497C113.202 11.0641 114.219 14.3036 114.104 17.2595C114.104 17.2595 113.242 11.125 106.8 8.91335L106.798 8.91525Z" fill="#C19A74"/>
<path d="M98.8607 9.23135C98.8607 9.23135 94.8457 11.8713 94.8438 17.2635C94.8438 22.6518 100.239 23.5692 101.269 22.6518C102.301 21.7325 102.419 20.5829 100.007 19.6674C97.5985 18.7481 95.9289 11.8199 102.419 9.22754H98.8607V9.23135Z" fill="#C19A74"/>
<path d="M76.6035 36.5308C76.6035 36.5308 81.5361 34.1231 82.9144 31.9418C84.2927 29.7625 85.9775 24.3037 81.8806 24.2542C80.6108 24.2428 79.0345 26.6677 79.9293 29.1896C79.9293 29.1896 75.3394 23.569 80.489 20.8168C86.5696 17.564 94.0398 25.7484 86.2402 32.7451L76.6016 36.5289L76.6035 36.5308Z" fill="#C19A74"/>
<path d="M69.0838 54.0834C69.0838 54.0834 69.1371 47.6558 74.7588 43.8719C80.3825 40.09 83.3638 41.1197 84.9686 38.1353C84.9686 38.1353 85.7929 43.4151 83.0877 46.6242C80.3825 49.837 75.6669 48.5142 72.8094 54.8847C69.9519 61.2533 71.7738 64.7364 71.5434 66.7502C71.5434 66.7502 68.783 58.286 69.0857 54.0834H69.0838Z" fill="#C19A74"/>
<path d="M114.109 18.1769C114.109 18.1769 114.109 13.017 119.279 11.5248C124.492 10.0211 127.197 15.4247 127.197 18.9783C127.197 18.9783 122.835 13.3615 119.279 17.2576C116.296 20.5333 114.305 26.5022 109.336 28.3066C109.336 28.3066 114.242 21.2851 114.109 18.1769Z" fill="#C19A74"/>
<path d="M65.4265 44.7952C65.4265 44.7952 61.1221 40.7278 56.8406 44.9304C54.3676 47.3628 56.2961 51.4703 59.8371 54.1958C60.9489 55.0485 62.1539 57.0566 59.9742 58.6915C59.9742 58.6915 67.5644 56.6055 63.3133 52.3553C60.0446 49.0873 58.4302 43.8854 65.4246 44.7971L65.4265 44.7952Z" fill="#C19A74"/>
<path d="M45.127 65.0923C45.127 65.0923 41.0587 60.7926 45.266 56.5101C47.6933 54.0357 51.8054 55.9657 54.5277 59.5079C55.3806 60.6194 57.389 61.8223 59.0224 59.6449C59.0224 59.6449 56.9416 67.2297 52.6887 62.9815C49.42 59.7115 44.2132 58.1051 45.127 65.0923Z" fill="#C19A74"/>
<path d="M48.3262 48.0005C53.6415 46.7729 53.9156 48.9522 53.9156 48.9522C54.5953 52.0813 59.9067 57.6714 59.9067 57.6714L58.9529 58.6212L58.0011 59.5767C58.0011 59.5767 52.4155 54.2644 49.2819 53.5792C49.2819 53.5792 47.1021 53.3128 48.3262 48.0005Z" fill="#C19A74"/>
<path d="M58.8291 63.3815C59.3545 63.9107 60.8756 63.2445 62.2254 61.8931C63.5751 60.5417 64.2452 59.0229 63.7179 58.4937C63.1925 57.9684 61.6695 58.6365 60.3178 59.9879C58.9681 61.3373 58.3018 62.8524 58.8291 63.3815Z" fill="#C19A74"/>
<path d="M62.7026 62.367L63.9267 61.145L66.5177 65.5037L66.175 65.8444L65.838 66.1794L61.4766 63.5927L62.7026 62.367Z" fill="#C19A74"/>
<path d="M181.514 180.957C181.295 181.174 181.245 181.518 181.411 181.791C181.54 182.013 194.311 203.957 181.837 216.428C181.733 216.532 181.632 216.631 181.527 216.73C176.267 221.753 169.665 222.294 163.284 222.815C157.302 223.304 151.65 223.767 147.345 227.733C142.163 232.507 141.804 239.159 144.126 243.265C146.519 247.509 151.231 249.083 156.727 247.484C160.361 246.422 161.723 242.423 161.78 239.315C161.831 236.575 160.938 234.488 159.505 234.009C159.143 233.891 158.751 234.087 158.633 234.443C158.511 234.803 158.707 235.195 159.069 235.314C159.748 235.543 160.447 237.016 160.409 239.289C160.356 241.929 159.259 245.309 156.341 246.158C151.503 247.566 147.385 246.232 145.326 242.585C143.27 238.95 143.624 233.027 148.278 228.74C152.236 225.101 157.656 224.656 163.4 224.186C170.017 223.643 176.867 223.082 182.479 217.724C188.196 212.265 190.031 204.161 187.754 194.322C186.058 186.973 182.734 181.324 182.593 181.086C182.399 180.761 181.976 180.654 181.651 180.85C181.6 180.879 181.556 180.913 181.514 180.955V180.957Z" fill="#C19A74"/>
<path d="M150.314 247.14C150.314 247.14 155.342 253.022 150.314 256C150.314 256 149.419 249.83 146.664 247.41C143.908 244.987 142.891 241.752 143.009 238.796C143.009 238.796 143.866 244.934 150.314 247.142V247.14Z" fill="#C19A74"/>
<path d="M158.259 246.824C158.259 246.824 162.272 244.184 162.274 238.796C162.274 233.402 156.883 232.486 155.851 233.404C154.815 234.321 154.703 235.471 157.111 236.388C159.52 237.307 161.189 244.236 154.703 246.826H158.259V246.824Z" fill="#C19A74"/>
<path d="M180.515 219.524C180.515 219.524 175.582 221.932 174.206 224.11C172.83 226.293 171.141 231.753 175.24 231.797C176.504 231.814 178.084 229.386 177.187 226.866C177.187 226.866 181.777 232.486 176.631 235.238C170.551 238.489 163.079 230.307 170.88 223.306L180.515 219.524Z" fill="#C19A74"/>
<path d="M188.026 201.975C188.026 201.975 187.974 208.397 182.351 212.185C176.733 215.969 173.75 214.937 172.143 217.921C172.143 217.921 171.315 212.642 174.022 209.433C176.731 206.22 181.446 207.542 184.304 201.172C187.163 194.8 185.338 191.318 185.566 189.303C185.566 189.303 188.332 197.769 188.028 201.975H188.026Z" fill="#C19A74"/>
<path d="M143.002 237.878C143.002 237.878 143.002 243.042 137.836 244.53C132.623 246.034 129.916 240.63 129.914 237.073C129.914 237.073 134.276 242.694 137.834 238.794C140.819 235.518 142.808 229.547 147.775 227.75C147.775 227.75 142.869 234.766 143.002 237.876V237.878Z" fill="#C19A74"/>
<path d="M181.443 180.925C181.405 180.963 181.368 181.007 181.34 181.06C181.144 181.387 181.252 181.808 181.58 182.002C181.818 182.143 187.468 185.464 194.818 187.16C204.659 189.437 212.754 187.611 218.227 181.886C223.588 176.279 224.147 169.43 224.69 162.809C225.16 157.07 225.606 151.649 229.251 147.692C233.529 143.044 239.459 142.688 243.095 144.742C246.745 146.802 248.079 150.919 246.667 155.755C245.818 158.673 242.435 159.767 239.798 159.817C237.519 159.86 236.046 159.164 235.823 158.482C235.701 158.123 235.313 157.927 234.951 158.048C234.591 158.166 234.393 158.559 234.515 158.918C234.995 160.355 237.078 161.246 239.827 161.195C242.93 161.134 246.93 159.777 247.992 156.138C249.595 150.644 248.018 145.937 243.773 143.543C239.663 141.223 233.006 141.583 228.239 146.762C224.273 151.069 223.812 156.72 223.319 162.696C222.794 169.084 222.257 175.683 217.233 180.936C217.13 181.043 217.031 181.147 216.927 181.246C204.444 193.729 182.509 180.951 182.284 180.822C182.01 180.656 181.665 180.706 181.447 180.927L181.443 180.925Z" fill="#C19A74"/>
<path d="M247.647 149.729C247.647 149.729 253.525 154.758 256.509 149.729C256.509 149.729 250.339 148.834 247.917 146.082C245.495 143.326 242.253 142.308 239.297 142.424C239.297 142.424 245.435 143.286 247.645 149.729H247.647Z" fill="#C19A74"/>
<path d="M247.328 157.666C247.328 157.666 244.686 161.678 239.295 161.678C233.903 161.678 232.988 156.286 233.905 155.256C234.823 154.225 235.971 154.106 236.888 156.516C237.806 158.924 244.736 160.595 247.33 154.108V157.664L247.328 157.666Z" fill="#C19A74"/>
<path d="M220.023 179.918C220.023 179.918 222.432 174.986 224.613 173.608C226.795 172.232 232.253 170.544 232.301 174.644C232.314 175.91 229.891 177.487 227.368 176.593C227.368 176.593 232.99 181.182 235.741 176.033C238.998 169.954 230.808 162.483 223.81 170.281L220.023 179.918Z" fill="#C19A74"/>
<path d="M202.468 187.428C202.468 187.428 208.897 187.373 212.682 181.753C216.464 176.132 215.433 173.151 218.416 171.547C218.416 171.547 213.139 170.721 209.927 173.427C206.715 176.134 208.037 180.845 201.667 183.702C195.295 186.562 191.811 184.737 189.797 184.967C189.797 184.967 198.263 187.731 202.468 187.428Z" fill="#C19A74"/>
<path d="M238.372 142.418C238.372 142.418 243.535 142.418 245.029 137.247C246.533 132.039 241.131 129.333 237.572 129.333C237.572 129.333 243.19 133.693 239.291 137.247C236.019 140.231 230.045 142.22 228.242 147.186C228.242 147.186 235.267 142.283 238.372 142.418Z" fill="#C19A74"/>
<path d="M211.749 191.083C211.749 191.083 215.819 195.388 211.612 199.665C209.181 202.14 205.072 200.21 202.346 196.671C201.493 195.56 199.487 194.353 197.852 196.534C197.852 196.534 199.936 188.946 204.187 193.196C207.456 196.462 212.659 198.076 211.747 191.085L211.749 191.083Z" fill="#C19A74"/>
<path d="M191.455 211.38C191.455 211.38 195.756 215.448 200.037 211.243C202.512 208.813 200.582 204.705 197.039 201.982C195.929 201.129 194.722 199.121 196.902 197.488C196.902 197.488 189.313 199.572 193.564 203.82C196.833 207.088 198.444 212.296 191.453 211.38H191.455Z" fill="#C19A74"/>
<path d="M208.547 208.183C209.773 202.868 207.595 202.594 207.595 202.594C204.462 201.915 198.874 196.604 198.874 196.604L197.921 197.554L196.969 198.506C196.969 198.506 202.28 204.094 202.966 207.225C202.966 207.225 203.234 209.403 208.547 208.181V208.183Z" fill="#C19A74"/>
<path d="M193.164 197.684C192.639 197.155 193.305 195.636 194.655 194.286C196.004 192.935 197.527 192.267 198.053 192.792C198.582 193.321 197.912 194.842 196.56 196.193C195.211 197.543 193.693 198.211 193.162 197.682L193.164 197.684Z" fill="#C19A74"/>
<path d="M194.182 193.809L195.404 192.585L191.047 189.996L190.704 190.339L190.367 190.674L192.956 195.036L194.182 193.809Z" fill="#C19A74"/>
</g>
<defs>
<clipPath id="clip0_0_89">
<rect width="256" height="256" fill="white" transform="translate(0.5)"/>
</clipPath>
</defs>
</svg>
